<mxfile host="Electron" modified="2023-06-18T03:22:02.077Z" agent="Mozilla/5.0 (Macintosh; Intel Mac OS X 10_15_7) AppleWebKit/537.36 (KHTML, like Gecko) draw.io/21.4.0 Chrome/112.0.5615.204 Electron/24.5.1 Safari/537.36" etag="bwu1-SC1e7gNQS2mtNG7" version="21.4.0" type="device">
  <diagram name="Page-1" id="NIuV8RBpg_5D0fSmUPzC">
    <mxGraphModel dx="719" dy="563" grid="1" gridSize="10" guides="1" tooltips="1" connect="1" arrows="1" fold="1" page="1" pageScale="1" pageWidth="850" pageHeight="1100" math="0" shadow="0">
      <root>
        <mxCell id="0" />
        <mxCell id="1" parent="0" />
        <mxCell id="h7_Um3FKoTpPnNRgxbPx-30" value="" style="rounded=0;whiteSpace=wrap;html=1;" vertex="1" parent="1">
          <mxGeometry x="150" y="90" width="400" height="130" as="geometry" />
        </mxCell>
        <mxCell id="h7_Um3FKoTpPnNRgxbPx-22" value="" style="rounded=0;whiteSpace=wrap;html=1;" vertex="1" parent="1">
          <mxGeometry x="130" y="230" width="440" height="160" as="geometry" />
        </mxCell>
        <mxCell id="h7_Um3FKoTpPnNRgxbPx-4" value="ElasticSearch" style="text;html=1;strokeColor=none;fillColor=none;align=left;verticalAlign=middle;whiteSpace=wrap;rounded=0;" vertex="1" parent="1">
          <mxGeometry x="190" y="90" width="90" height="30" as="geometry" />
        </mxCell>
        <mxCell id="h7_Um3FKoTpPnNRgxbPx-31" style="edgeStyle=orthogonalEdgeStyle;rounded=0;orthogonalLoop=1;jettySize=auto;html=1;entryX=0.236;entryY=1.007;entryDx=0;entryDy=0;entryPerimeter=0;" edge="1" parent="1" source="h7_Um3FKoTpPnNRgxbPx-5" target="h7_Um3FKoTpPnNRgxbPx-30">
          <mxGeometry relative="1" as="geometry" />
        </mxCell>
        <mxCell id="h7_Um3FKoTpPnNRgxbPx-5" value="" style="rounded=1;whiteSpace=wrap;html=1;" vertex="1" parent="1">
          <mxGeometry x="150" y="270" width="190" height="80" as="geometry" />
        </mxCell>
        <mxCell id="h7_Um3FKoTpPnNRgxbPx-18" value="" style="edgeStyle=orthogonalEdgeStyle;rounded=0;orthogonalLoop=1;jettySize=auto;html=1;entryX=0.124;entryY=0.006;entryDx=0;entryDy=0;entryPerimeter=0;startArrow=classic;startFill=1;" edge="1" parent="1" source="h7_Um3FKoTpPnNRgxbPx-6" target="h7_Um3FKoTpPnNRgxbPx-11">
          <mxGeometry relative="1" as="geometry" />
        </mxCell>
        <mxCell id="h7_Um3FKoTpPnNRgxbPx-6" value="Batch Monitor" style="rounded=0;whiteSpace=wrap;html=1;" vertex="1" parent="1">
          <mxGeometry x="160" y="310" width="80" height="30" as="geometry" />
        </mxCell>
        <mxCell id="h7_Um3FKoTpPnNRgxbPx-19" value="" style="edgeStyle=orthogonalEdgeStyle;rounded=0;orthogonalLoop=1;jettySize=auto;html=1;entryX=0.35;entryY=0.018;entryDx=0;entryDy=0;entryPerimeter=0;startArrow=classic;startFill=1;" edge="1" parent="1" source="h7_Um3FKoTpPnNRgxbPx-8" target="h7_Um3FKoTpPnNRgxbPx-11">
          <mxGeometry relative="1" as="geometry" />
        </mxCell>
        <mxCell id="h7_Um3FKoTpPnNRgxbPx-8" value="Realtime Monitor" style="rounded=0;whiteSpace=wrap;html=1;" vertex="1" parent="1">
          <mxGeometry x="250" y="310" width="80" height="30" as="geometry" />
        </mxCell>
        <mxCell id="h7_Um3FKoTpPnNRgxbPx-9" value="Eagle Engine" style="text;html=1;strokeColor=none;fillColor=none;align=center;verticalAlign=middle;whiteSpace=wrap;rounded=0;" vertex="1" parent="1">
          <mxGeometry x="207.5" y="270" width="75" height="30" as="geometry" />
        </mxCell>
        <mxCell id="h7_Um3FKoTpPnNRgxbPx-11" value="Eagle Eye Client" style="rounded=1;whiteSpace=wrap;html=1;" vertex="1" parent="1">
          <mxGeometry x="150" y="370" width="400" height="30" as="geometry" />
        </mxCell>
        <mxCell id="h7_Um3FKoTpPnNRgxbPx-32" style="edgeStyle=orthogonalEdgeStyle;rounded=0;orthogonalLoop=1;jettySize=auto;html=1;entryX=0.764;entryY=1.027;entryDx=0;entryDy=0;entryPerimeter=0;" edge="1" parent="1" source="h7_Um3FKoTpPnNRgxbPx-12" target="h7_Um3FKoTpPnNRgxbPx-30">
          <mxGeometry relative="1" as="geometry" />
        </mxCell>
        <mxCell id="h7_Um3FKoTpPnNRgxbPx-12" value="" style="rounded=1;whiteSpace=wrap;html=1;" vertex="1" parent="1">
          <mxGeometry x="360" y="270" width="190" height="80" as="geometry" />
        </mxCell>
        <mxCell id="h7_Um3FKoTpPnNRgxbPx-20" value="" style="edgeStyle=orthogonalEdgeStyle;rounded=0;orthogonalLoop=1;jettySize=auto;html=1;startArrow=classic;startFill=1;" edge="1" parent="1" source="h7_Um3FKoTpPnNRgxbPx-13">
          <mxGeometry relative="1" as="geometry">
            <mxPoint x="410" y="370" as="targetPoint" />
          </mxGeometry>
        </mxCell>
        <mxCell id="h7_Um3FKoTpPnNRgxbPx-13" value="Metadata Registry" style="rounded=0;whiteSpace=wrap;html=1;" vertex="1" parent="1">
          <mxGeometry x="370" y="310" width="80" height="30" as="geometry" />
        </mxCell>
        <mxCell id="h7_Um3FKoTpPnNRgxbPx-21" value="" style="edgeStyle=orthogonalEdgeStyle;rounded=0;orthogonalLoop=1;jettySize=auto;html=1;entryX=0.875;entryY=-0.02;entryDx=0;entryDy=0;entryPerimeter=0;startArrow=classic;startFill=1;" edge="1" parent="1" source="h7_Um3FKoTpPnNRgxbPx-14" target="h7_Um3FKoTpPnNRgxbPx-11">
          <mxGeometry relative="1" as="geometry" />
        </mxCell>
        <mxCell id="h7_Um3FKoTpPnNRgxbPx-14" value="Consumer Log Input" style="rounded=0;whiteSpace=wrap;html=1;" vertex="1" parent="1">
          <mxGeometry x="460" y="310" width="80" height="30" as="geometry" />
        </mxCell>
        <mxCell id="h7_Um3FKoTpPnNRgxbPx-15" value="APIs" style="text;html=1;strokeColor=none;fillColor=none;align=center;verticalAlign=middle;whiteSpace=wrap;rounded=0;" vertex="1" parent="1">
          <mxGeometry x="417.5" y="270" width="75" height="30" as="geometry" />
        </mxCell>
        <mxCell id="h7_Um3FKoTpPnNRgxbPx-23" value="" style="shape=image;verticalLabelPosition=bottom;labelBackgroundColor=default;verticalAlign=top;aspect=fixed;imageAspect=0;image=https://upload.wikimedia.org/wikipedia/commons/thumb/4/44/Spring_Framework_Logo_2018.svg/1280px-Spring_Framework_Logo_2018.svg.png;" vertex="1" parent="1">
          <mxGeometry x="137.5" y="240" width="70" height="17.97" as="geometry" />
        </mxCell>
        <mxCell id="h7_Um3FKoTpPnNRgxbPx-24" value="" style="shape=image;verticalLabelPosition=bottom;labelBackgroundColor=default;verticalAlign=top;aspect=fixed;imageAspect=0;image=https://static.vecteezy.com/system/resources/previews/022/101/050/original/java-logo-transparent-free-png.png;" vertex="1" parent="1">
          <mxGeometry x="527.5" y="230" width="42.5" height="42.5" as="geometry" />
        </mxCell>
        <mxCell id="h7_Um3FKoTpPnNRgxbPx-25" value="Consumer Metadata" style="shape=cylinder3;whiteSpace=wrap;html=1;boundedLbl=1;backgroundOutline=1;size=15;" vertex="1" parent="1">
          <mxGeometry x="470" y="130" width="60" height="80" as="geometry" />
        </mxCell>
        <mxCell id="h7_Um3FKoTpPnNRgxbPx-26" value="Alert Logs" style="shape=cylinder3;whiteSpace=wrap;html=1;boundedLbl=1;backgroundOutline=1;size=15;" vertex="1" parent="1">
          <mxGeometry x="170" y="130" width="60" height="80" as="geometry" />
        </mxCell>
        <mxCell id="h7_Um3FKoTpPnNRgxbPx-28" value="Event Logs" style="shape=cylinder3;whiteSpace=wrap;html=1;boundedLbl=1;backgroundOutline=1;size=15;" vertex="1" parent="1">
          <mxGeometry x="260" y="130" width="60" height="80" as="geometry" />
        </mxCell>
        <mxCell id="h7_Um3FKoTpPnNRgxbPx-29" value="App Metadata" style="shape=cylinder3;whiteSpace=wrap;html=1;boundedLbl=1;backgroundOutline=1;size=15;" vertex="1" parent="1">
          <mxGeometry x="380" y="130" width="60" height="80" as="geometry" />
        </mxCell>
        <mxCell id="h7_Um3FKoTpPnNRgxbPx-3" value="" style="shape=image;verticalLabelPosition=bottom;labelBackgroundColor=default;verticalAlign=top;aspect=fixed;imageAspect=0;image=https://brandslogos.com/wp-content/uploads/thumbs/elastic-elasticsearch-logo-vector.svg;" vertex="1" parent="1">
          <mxGeometry x="150" y="80" width="50" height="50" as="geometry" />
        </mxCell>
      </root>
    </mxGraphModel>
  </diagram>
</mxfile>
